<?xml version="1.0" encoding="UTF-8"?>
<svg xmlns="http://www.w3.org/2000/svg" viewBox="0 0 107.61 129.68">
  <defs>
    <style>
      .cls-1, .cls-2 {
        fill: none;
      }

      .cls-1, .cls-2, .cls-3, .cls-4, .cls-5, .cls-6 {
        stroke-miterlimit: 10;
      }

      .cls-1, .cls-3, .cls-4 {
        stroke: #231f20;
      }

      .cls-2 {
        stroke: #000;
      }

      .cls-3 {
        fill: #fff;
      }

      .cls-4 {
        fill: #231f20;
      }

      .cls-5 {
        fill: #ed1c24;
        stroke: #741015;
      }

      .cls-6 {
        fill: #fff200;
        stroke: #936929;
      }
    </style>
  </defs>
  <g id="_Слой_1" data-name="Слой 1">
    <path class="cls-3" d="m92.21,14.26c5.71.14,14.5,4.31,14.9,51.87.48,56.6-60.13,49.35-60.13,49.35,0,0-39.92,1.93-44.46-44.55s0-32.08,0-32.08c0,0,15.41,33.41,41.18,26.56s32.08-32.87,32.08-32.87c0,0,.13-4.58,2.07-9.15l-1.47-10.11,15.82.98Z"/>
    <path class="cls-6" d="m95.23,31.48l-5.7,5.55c-1.1,1.07.13,2.56,1.61,2.97l9.64,3.19c1.38.38,2.69-.8,2.47-2.21l-.91-5.75c-.08-.53-.38-1.01-.82-1.31l-3.78-2.63c-.78-.54-1.83-.45-2.5.21Z"/>
    <circle class="cls-4" cx="87.47" cy="30.41" r="1.75"/>
    <circle class="cls-4" cx="100.12" cy="28.65" r="1.75"/>
    <polyline class="cls-1" points="55.83 109.59 55.83 124.18 59.62 127.97"/>
    <polyline class="cls-1" points="55.83 129.68 55.83 124.18 52.23 126.93"/>
    <polyline class="cls-1" points="65.93 109.78 68.59 124.12 73.01 127.16"/>
    <polyline class="cls-1" points="69.6 129.52 68.59 124.12 65.56 127.48"/>
    <path class="cls-2" d="m73.01,68.16l-20.77,30.25c-.75,1.1-2.47.56-2.47-.77v-10.79l-21.08,13.31c-.87.55-1.91-.37-1.49-1.3l7.91-17.32"/>
  </g>
  <g id="_Слой_2" data-name="Слой 2">
    <path class="cls-5" d="m92.89,7.53s.83-4.67-2.27-5.56-2.27,6.51-2.27,6.51c0,0-.95-5.62-7.64-7.71s-7.77,8.59-7.77,8.59c-8.46-.88-6.13,3.85-3.16,6.57l8.07,7.46c1.82-4.28,5.21-8.55,11.57-9.04.77,0,1.72-.11,2.78-.08l.68-6.74Z"/>
  </g>
</svg>